<svg width="328" height="192" viewBox="0 0 328 192" fill="none" xmlns="http://www.w3.org/2000/svg">
<g clip-path="url(#clip0_201_1284)">
<rect width="328" height="192" rx="15" fill="white"/>
<rect width="328" height="192" rx="15" fill="url(#paint0_linear_201_1284)"/>
<path d="M66.5 43.5C38.5 37.5 10.5 54 0 63V0H148C132.5 17 94.5 49.5 66.5 43.5Z" fill="url(#paint1_linear_201_1284)"/>
<path d="M110 101.87C43.6 94.2704 -0.5 116.037 -9.5 127.87L-19 165.37C3 144.315 57.8 112.238 63 152.37C69.5 202.535 145.5 182.87 149.5 165.37C153.5 147.87 242.5 185.37 228.5 127.87C214.5 70.3704 338 125.37 338 119.37V71.3704C328.167 54.3704 291.8 23.1704 225 34.3704C141.5 48.3704 193 111.37 110 101.87Z" fill="url(#paint2_linear_201_1284)"/>
<path d="M24.8009 151.837H24.3397C24.3124 151.704 24.2647 151.588 24.1965 151.487C24.1295 151.387 24.0477 151.302 23.951 151.234C23.8555 151.165 23.7495 151.113 23.633 151.078C23.5164 151.043 23.3949 151.026 23.2685 151.026C23.0378 151.026 22.8289 151.084 22.6417 151.201C22.4557 151.317 22.3076 151.489 22.1972 151.716C22.0881 151.943 22.0336 152.221 22.0336 152.551C22.0336 152.881 22.0881 153.159 22.1972 153.386C22.3076 153.613 22.4557 153.785 22.6417 153.901C22.8289 154.018 23.0378 154.076 23.2685 154.076C23.3949 154.076 23.5164 154.059 23.633 154.024C23.7495 153.989 23.8555 153.938 23.951 153.869C24.0477 153.8 24.1295 153.715 24.1965 153.615C24.2647 153.513 24.3124 153.396 24.3397 153.265H24.8009C24.7662 153.46 24.703 153.634 24.6112 153.788C24.5195 153.941 24.4054 154.072 24.269 154.18C24.1326 154.287 23.9795 154.368 23.8097 154.424C23.641 154.479 23.4606 154.507 23.2685 154.507C22.9436 154.507 22.6547 154.428 22.4018 154.269C22.1489 154.111 21.9499 153.885 21.8048 153.592C21.6598 153.3 21.5872 152.953 21.5872 152.551C21.5872 152.149 21.6598 151.802 21.8048 151.509C21.9499 151.217 22.1489 150.991 22.4018 150.832C22.6547 150.674 22.9436 150.594 23.2685 150.594C23.4606 150.594 23.641 150.622 23.8097 150.678C23.9795 150.734 24.1326 150.816 24.269 150.924C24.4054 151.03 24.5195 151.16 24.6112 151.314C24.703 151.467 24.7662 151.641 24.8009 151.837ZM26.3273 154.522C26.1463 154.522 25.982 154.488 25.8345 154.42C25.6869 154.351 25.5698 154.251 25.483 154.121C25.3962 153.989 25.3528 153.83 25.3528 153.644C25.3528 153.481 25.385 153.348 25.4495 153.246C25.514 153.144 25.6002 153.063 25.708 153.005C25.8159 152.946 25.9349 152.903 26.0651 152.874C26.1965 152.845 26.3286 152.821 26.4612 152.804C26.6348 152.782 26.7755 152.765 26.8834 152.754C26.9925 152.741 27.0719 152.721 27.1215 152.692C27.1723 152.664 27.1977 152.614 27.1977 152.543V152.529C27.1977 152.345 27.1475 152.202 27.0471 152.101C26.9479 151.999 26.7972 151.948 26.5951 151.948C26.3856 151.948 26.2213 151.994 26.1023 152.086C25.9833 152.178 25.8996 152.276 25.8512 152.38L25.4346 152.231C25.509 152.057 25.6082 151.922 25.7322 151.826C25.8574 151.728 25.9938 151.659 26.1413 151.621C26.2901 151.581 26.4364 151.561 26.5803 151.561C26.672 151.561 26.7774 151.573 26.8964 151.595C27.0167 151.616 27.1326 151.66 27.2442 151.727C27.357 151.794 27.4506 151.895 27.525 152.03C27.5994 152.165 27.6366 152.346 27.6366 152.573V154.455H27.1977V154.068H27.1754C27.1456 154.13 27.096 154.197 27.0266 154.267C26.9572 154.338 26.8648 154.398 26.7495 154.448C26.6342 154.497 26.4935 154.522 26.3273 154.522ZM26.3943 154.128C26.5679 154.128 26.7142 154.094 26.8332 154.026C26.9535 153.958 27.044 153.869 27.1047 153.762C27.1667 153.654 27.1977 153.54 27.1977 153.421V153.02C27.1791 153.042 27.1382 153.062 27.075 153.081C27.013 153.098 26.9411 153.114 26.8592 153.127C26.7786 153.14 26.6999 153.151 26.623 153.161C26.5474 153.17 26.486 153.177 26.4389 153.183C26.3248 153.198 26.2182 153.222 26.119 153.256C26.0211 153.288 25.9417 153.337 25.881 153.403C25.8215 153.467 25.7917 153.555 25.7917 153.667C25.7917 153.819 25.8481 153.935 25.961 154.013C26.075 154.09 26.2195 154.128 26.3943 154.128ZM28.4377 154.455V151.599H28.8617V152.03H28.8915C28.9436 151.889 29.0378 151.774 29.1742 151.686C29.3106 151.598 29.4643 151.554 29.6354 151.554C29.6676 151.554 29.7079 151.555 29.7563 151.556C29.8046 151.557 29.8412 151.559 29.866 151.561V152.008C29.8511 152.004 29.817 151.999 29.7637 151.991C29.7117 151.982 29.6565 151.978 29.5982 151.978C29.4593 151.978 29.3354 152.007 29.2263 152.065C29.1184 152.123 29.0328 152.202 28.9696 152.304C28.9076 152.404 28.8766 152.519 28.8766 152.648V154.455H28.4377ZM31.378 154.515C31.14 154.515 30.9298 154.455 30.7475 154.334C30.5653 154.213 30.4227 154.042 30.3198 153.821C30.2169 153.599 30.1654 153.337 30.1654 153.034C30.1654 152.734 30.2169 152.474 30.3198 152.253C30.4227 152.033 30.5659 151.862 30.7494 151.742C30.9329 151.622 31.1449 151.561 31.3855 151.561C31.5714 151.561 31.7184 151.592 31.8262 151.654C31.9353 151.715 32.0184 151.785 32.0754 151.863C32.1337 151.94 32.179 152.003 32.2112 152.052H32.2484V150.646H32.6873V154.455H32.2633V154.016H32.2112C32.179 154.068 32.1331 154.134 32.0736 154.214C32.0141 154.292 31.9291 154.362 31.8188 154.424C31.7084 154.484 31.5615 154.515 31.378 154.515ZM31.4375 154.121C31.6136 154.121 31.7624 154.075 31.8839 153.983C32.0054 153.89 32.0977 153.762 32.161 153.598C32.2242 153.433 32.2558 153.243 32.2558 153.027C32.2558 152.814 32.2248 152.627 32.1628 152.467C32.1008 152.306 32.0091 152.181 31.8876 152.092C31.7661 152.001 31.6161 151.956 31.4375 151.956C31.2515 151.956 31.0966 152.004 30.9726 152.099C30.8498 152.193 30.7575 152.322 30.6955 152.484C30.6347 152.645 30.6043 152.826 30.6043 153.027C30.6043 153.23 30.6353 153.415 30.6973 153.581C30.7606 153.746 30.8536 153.878 30.9763 153.975C31.1003 154.072 31.254 154.121 31.4375 154.121ZM35.0845 154.455V150.646H35.5458V152.343H37.5766V150.646H38.0379V154.455H37.5766V152.752H35.5458V154.455H35.0845ZM40.0622 154.515C39.8043 154.515 39.5781 154.453 39.3834 154.331C39.19 154.208 39.0387 154.036 38.9296 153.816C38.8218 153.595 38.7678 153.337 38.7678 153.042C38.7678 152.744 38.8218 152.485 38.9296 152.263C39.0387 152.041 39.19 151.868 39.3834 151.746C39.5781 151.623 39.8043 151.561 40.0622 151.561C40.3201 151.561 40.5458 151.623 40.7392 151.746C40.9339 151.868 41.0851 152.041 41.193 152.263C41.3021 152.485 41.3566 152.744 41.3566 153.042C41.3566 153.337 41.3021 153.595 41.193 153.816C41.0851 154.036 40.9339 154.208 40.7392 154.331C40.5458 154.453 40.3201 154.515 40.0622 154.515ZM40.0622 154.121C40.2581 154.121 40.4193 154.07 40.5458 153.97C40.6722 153.869 40.7659 153.737 40.8266 153.574C40.8874 153.41 40.9177 153.233 40.9177 153.042C40.9177 152.851 40.8874 152.673 40.8266 152.508C40.7659 152.343 40.6722 152.21 40.5458 152.108C40.4193 152.007 40.2581 151.956 40.0622 151.956C39.8663 151.956 39.7052 152.007 39.5787 152.108C39.4522 152.21 39.3586 152.343 39.2979 152.508C39.2371 152.673 39.2067 152.851 39.2067 153.042C39.2067 153.233 39.2371 153.41 39.2979 153.574C39.3586 153.737 39.4522 153.869 39.5787 153.97C39.7052 154.07 39.8663 154.121 40.0622 154.121ZM42.4655 150.646V154.455H42.0266V150.646H42.4655ZM44.3481 154.515C44.11 154.515 43.8999 154.455 43.7176 154.334C43.5354 154.213 43.3928 154.042 43.2899 153.821C43.187 153.599 43.1355 153.337 43.1355 153.034C43.1355 152.734 43.187 152.474 43.2899 152.253C43.3928 152.033 43.536 151.862 43.7195 151.742C43.903 151.622 44.115 151.561 44.3555 151.561C44.5415 151.561 44.6884 151.592 44.7963 151.654C44.9054 151.715 44.9885 151.785 45.0455 151.863C45.1038 151.94 45.149 152.003 45.1813 152.052H45.2185V150.646H45.6574V154.455H45.2333V154.016H45.1813C45.149 154.068 45.1032 154.134 45.0436 154.214C44.9841 154.292 44.8992 154.362 44.7889 154.424C44.6785 154.484 44.5316 154.515 44.3481 154.515ZM44.4076 154.121C44.5837 154.121 44.7324 154.075 44.854 153.983C44.9755 153.89 45.0678 153.762 45.1311 153.598C45.1943 153.433 45.2259 153.243 45.2259 153.027C45.2259 152.814 45.1949 152.627 45.1329 152.467C45.0709 152.306 44.9792 152.181 44.8577 152.092C44.7362 152.001 44.5861 151.956 44.4076 151.956C44.2216 151.956 44.0666 152.004 43.9427 152.099C43.8199 152.193 43.7275 152.322 43.6656 152.484C43.6048 152.645 43.5744 152.826 43.5744 153.027C43.5744 153.23 43.6054 153.415 43.6674 153.581C43.7306 153.746 43.8236 153.878 43.9464 153.975C44.0704 154.072 44.2241 154.121 44.4076 154.121ZM47.7199 154.515C47.4446 154.515 47.2072 154.454 47.0076 154.333C46.8092 154.21 46.6561 154.039 46.5482 153.819C46.4416 153.599 46.3883 153.342 46.3883 153.049C46.3883 152.757 46.4416 152.499 46.5482 152.276C46.6561 152.051 46.8061 151.876 46.9983 151.751C47.1917 151.625 47.4173 151.561 47.6752 151.561C47.824 151.561 47.9709 151.586 48.116 151.636C48.2611 151.685 48.3931 151.766 48.5121 151.878C48.6312 151.988 48.726 152.134 48.7967 152.317C48.8673 152.499 48.9027 152.723 48.9027 152.99V153.176H46.7007V152.796H48.4563C48.4563 152.635 48.4241 152.491 48.3596 152.365C48.2964 152.238 48.2059 152.139 48.0881 152.065C47.9716 151.992 47.8339 151.956 47.6752 151.956C47.5004 151.956 47.3492 151.999 47.2214 152.086C47.095 152.172 46.9977 152.283 46.9295 152.421C46.8613 152.558 46.8272 152.706 46.8272 152.863V153.116C46.8272 153.332 46.8644 153.515 46.9388 153.665C47.0144 153.814 47.1192 153.927 47.2531 154.005C47.387 154.082 47.5426 154.121 47.7199 154.121C47.8352 154.121 47.9393 154.104 48.0323 154.072C48.1265 154.039 48.2077 153.989 48.2759 153.923C48.3441 153.856 48.3968 153.773 48.434 153.674L48.858 153.793C48.8134 153.937 48.7384 154.064 48.633 154.173C48.5276 154.28 48.3974 154.365 48.2425 154.426C48.0875 154.485 47.9133 154.515 47.7199 154.515ZM49.5703 154.455V151.599H49.9944V152.03H50.0241C50.0762 151.889 50.1704 151.774 50.3068 151.686C50.4432 151.598 50.5969 151.554 50.768 151.554C50.8003 151.554 50.8406 151.555 50.8889 151.556C50.9373 151.557 50.9739 151.559 50.9987 151.561V152.008C50.9838 152.004 50.9497 151.999 50.8964 151.991C50.8443 151.982 50.7891 151.978 50.7308 151.978C50.592 151.978 50.468 152.007 50.3589 152.065C50.251 152.123 50.1655 152.202 50.1022 152.304C50.0402 152.404 50.0092 152.519 50.0092 152.648V154.455H49.5703Z" fill="black" fill-opacity="0.7"/>
<path d="M21.8199 161.05V159.881H28.7873V161.05H25.9783V168.884H24.6244V161.05H21.8199ZM29.5203 168.884V162.132H30.7907V163.204H30.861C30.9841 162.841 31.2009 162.555 31.5116 162.347C31.8251 162.136 32.1797 162.031 32.5754 162.031C32.6574 162.031 32.7541 162.033 32.8655 162.039C32.9798 162.045 33.0692 162.052 33.1336 162.061V163.318C33.0809 163.304 32.9871 163.288 32.8523 163.27C32.7175 163.25 32.5827 163.239 32.4479 163.239C32.1373 163.239 31.8603 163.305 31.6171 163.437C31.3768 163.566 31.1863 163.746 31.0456 163.978C30.905 164.206 30.8346 164.467 30.8346 164.76V168.884H29.5203ZM36.8734 169.02C36.2404 169.02 35.688 168.875 35.2162 168.585C34.7443 168.295 34.378 167.889 34.1172 167.367C33.8564 166.845 33.726 166.236 33.726 165.538C33.726 164.838 33.8564 164.226 34.1172 163.701C34.378 163.176 34.7443 162.769 35.2162 162.479C35.688 162.189 36.2404 162.044 36.8734 162.044C37.5064 162.044 38.0588 162.189 38.5306 162.479C39.0024 162.769 39.3688 163.176 39.6296 163.701C39.8904 164.226 40.0208 164.838 40.0208 165.538C40.0208 166.236 39.8904 166.845 39.6296 167.367C39.3688 167.889 39.0024 168.295 38.5306 168.585C38.0588 168.875 37.5064 169.02 36.8734 169.02ZM36.8778 167.917C37.2881 167.917 37.628 167.808 37.8976 167.591C38.1672 167.374 38.3665 167.086 38.4955 166.725C38.6273 166.365 38.6933 165.968 38.6933 165.534C38.6933 165.103 38.6273 164.708 38.4955 164.347C38.3665 163.984 38.1672 163.692 37.8976 163.472C37.628 163.253 37.2881 163.143 36.8778 163.143C36.4646 163.143 36.1217 163.253 35.8492 163.472C35.5796 163.692 35.3788 163.984 35.2469 164.347C35.118 164.708 35.0535 165.103 35.0535 165.534C35.0535 165.968 35.118 166.365 35.2469 166.725C35.3788 167.086 35.5796 167.374 35.8492 167.591C36.1217 167.808 36.4646 167.917 36.8778 167.917ZM42.0891 171.416C41.8927 171.416 41.7139 171.4 41.5528 171.367C41.3916 171.338 41.2714 171.306 41.1923 171.271L41.5088 170.194C41.7491 170.258 41.963 170.286 42.1506 170.277C42.3382 170.268 42.5037 170.198 42.6473 170.066C42.7939 169.934 42.9228 169.719 43.0342 169.42L43.1968 168.972L40.7263 162.132H42.133L43.843 167.371H43.9133L45.6233 162.132H47.0344L44.2518 169.785C44.1229 170.136 43.9587 170.434 43.7595 170.677C43.5602 170.923 43.3228 171.108 43.0473 171.231C42.7719 171.354 42.4524 171.416 42.0891 171.416ZM51.6511 168.884V159.881H53.0094V164.18H53.1193L56.8953 159.881H58.6053L54.9743 163.934L58.6185 168.884H56.9832L54.0732 164.861L53.0094 166.083V168.884H51.6511ZM60.1889 168.884V162.132H61.5033V168.884H60.1889ZM60.8527 161.09C60.6241 161.09 60.4277 161.014 60.2636 160.861C60.1025 160.706 60.0219 160.521 60.0219 160.307C60.0219 160.09 60.1025 159.906 60.2636 159.753C60.4277 159.598 60.6241 159.52 60.8527 159.52C61.0813 159.52 61.2761 159.598 61.4373 159.753C61.6014 159.906 61.6835 160.09 61.6835 160.307C61.6835 160.521 61.6014 160.706 61.4373 160.861C61.2761 161.014 61.0813 161.09 60.8527 161.09ZM63.2715 168.884V162.132H64.5331V163.231H64.6166C64.7573 162.858 64.9873 162.568 65.3068 162.36C65.6262 162.149 66.0086 162.044 66.4541 162.044C66.9054 162.044 67.2834 162.149 67.5882 162.36C67.8959 162.571 68.123 162.861 68.2695 163.231H68.3399C68.5011 162.87 68.7575 162.583 69.1091 162.369C69.4608 162.152 69.8799 162.044 70.3664 162.044C70.9788 162.044 71.4785 162.236 71.8653 162.62C72.2551 163.003 72.45 163.582 72.45 164.356V168.884H71.1356V164.479C71.1356 164.022 71.0111 163.691 70.762 163.486C70.5129 163.28 70.2154 163.178 69.8696 163.178C69.4418 163.178 69.1091 163.31 68.8718 163.573C68.6344 163.834 68.5157 164.17 68.5157 164.58V168.884H67.2058V164.395C67.2058 164.029 67.0915 163.735 66.8629 163.512C66.6343 163.289 66.3368 163.178 65.9705 163.178C65.7214 163.178 65.4914 163.244 65.2804 163.376C65.0723 163.505 64.9038 163.685 64.7749 163.916C64.6488 164.148 64.5858 164.416 64.5858 164.721V168.884H63.2715Z" fill="black"/>
<path d="M110.444 154.455V150.646H112.742V151.056H110.905V152.343H112.623V152.752H110.905V154.046H112.772V154.455H110.444ZM113.842 151.599L114.526 152.767L115.21 151.599H115.716L114.794 153.027L115.716 154.455H115.21L114.526 153.347L113.842 154.455H113.336L114.243 153.027L113.336 151.599H113.842ZM116.342 155.527V151.599H116.766V152.052H116.819C116.851 152.003 116.895 151.94 116.952 151.863C117.011 151.785 117.094 151.715 117.202 151.654C117.311 151.592 117.458 151.561 117.644 151.561C117.885 151.561 118.097 151.622 118.28 151.742C118.464 151.862 118.607 152.033 118.71 152.253C118.813 152.474 118.864 152.734 118.864 153.034C118.864 153.337 118.813 153.599 118.71 153.821C118.607 154.042 118.464 154.213 118.282 154.334C118.1 154.455 117.89 154.515 117.652 154.515C117.468 154.515 117.321 154.484 117.211 154.424C117.101 154.362 117.016 154.292 116.956 154.214C116.897 154.134 116.851 154.068 116.819 154.016H116.781V155.527H116.342ZM116.774 153.027C116.774 153.243 116.806 153.433 116.869 153.598C116.932 153.762 117.024 153.89 117.146 153.983C117.267 154.075 117.416 154.121 117.592 154.121C117.776 154.121 117.929 154.072 118.052 153.975C118.176 153.878 118.269 153.746 118.331 153.581C118.394 153.415 118.425 153.23 118.425 153.027C118.425 152.826 118.394 152.645 118.332 152.484C118.272 152.322 118.179 152.193 118.055 152.099C117.933 152.004 117.778 151.956 117.592 151.956C117.414 151.956 117.264 152.001 117.142 152.092C117.021 152.181 116.929 152.306 116.867 152.467C116.805 152.627 116.774 152.814 116.774 153.027ZM119.534 154.455V151.599H119.973V154.455H119.534ZM119.757 151.123C119.671 151.123 119.598 151.093 119.536 151.035C119.475 150.977 119.445 150.907 119.445 150.825C119.445 150.743 119.475 150.673 119.536 150.615C119.598 150.557 119.671 150.527 119.757 150.527C119.843 150.527 119.916 150.557 119.976 150.615C120.038 150.673 120.069 150.743 120.069 150.825C120.069 150.907 120.038 150.977 119.976 151.035C119.916 151.093 119.843 151.123 119.757 151.123ZM120.777 154.455V151.599H121.201V152.03H121.23C121.282 151.889 121.377 151.774 121.513 151.686C121.649 151.598 121.803 151.554 121.974 151.554C122.007 151.554 122.047 151.555 122.095 151.556C122.144 151.557 122.18 151.559 122.205 151.561V152.008C122.19 152.004 122.156 151.999 122.103 151.991C122.051 151.982 121.995 151.978 121.937 151.978C121.798 151.978 121.674 152.007 121.565 152.065C121.457 152.123 121.372 152.202 121.309 152.304C121.247 152.404 121.216 152.519 121.216 152.648V154.455H120.777ZM123.836 154.515C123.561 154.515 123.323 154.454 123.124 154.333C122.925 154.21 122.772 154.039 122.664 153.819C122.558 153.599 122.504 153.342 122.504 153.049C122.504 152.757 122.558 152.499 122.664 152.276C122.772 152.051 122.922 151.876 123.114 151.751C123.308 151.625 123.533 151.561 123.791 151.561C123.94 151.561 124.087 151.586 124.232 151.636C124.377 151.685 124.509 151.766 124.628 151.878C124.747 151.988 124.842 152.134 124.913 152.317C124.983 152.499 125.019 152.723 125.019 152.99V153.176H122.817V152.796H124.572C124.572 152.635 124.54 152.491 124.476 152.365C124.412 152.238 124.322 152.139 124.204 152.065C124.088 151.992 123.95 151.956 123.791 151.956C123.617 151.956 123.465 151.999 123.338 152.086C123.211 152.172 123.114 152.283 123.046 152.421C122.977 152.558 122.943 152.706 122.943 152.863V153.116C122.943 153.332 122.98 153.515 123.055 153.665C123.13 153.814 123.235 153.927 123.369 154.005C123.503 154.082 123.659 154.121 123.836 154.121C123.951 154.121 124.055 154.104 124.148 154.072C124.243 154.039 124.324 153.989 124.392 153.923C124.46 153.856 124.513 153.773 124.55 153.674L124.974 153.793C124.93 153.937 124.854 154.064 124.749 154.173C124.644 154.28 124.514 154.365 124.359 154.426C124.204 154.485 124.029 154.515 123.836 154.515ZM127.71 152.238L127.316 152.35C127.291 152.284 127.254 152.22 127.206 152.158C127.159 152.095 127.094 152.043 127.012 152.002C126.931 151.961 126.826 151.941 126.698 151.941C126.523 151.941 126.378 151.981 126.261 152.062C126.146 152.141 126.088 152.242 126.088 152.365C126.088 152.474 126.128 152.56 126.207 152.623C126.287 152.687 126.411 152.739 126.579 152.782L127.003 152.886C127.259 152.948 127.449 153.042 127.574 153.17C127.699 153.297 127.762 153.46 127.762 153.659C127.762 153.823 127.715 153.969 127.621 154.098C127.528 154.227 127.397 154.329 127.23 154.403C127.063 154.478 126.868 154.515 126.646 154.515C126.355 154.515 126.114 154.452 125.923 154.325C125.732 154.199 125.611 154.014 125.56 153.771L125.977 153.667C126.016 153.821 126.091 153.936 126.202 154.013C126.313 154.09 126.459 154.128 126.639 154.128C126.843 154.128 127.006 154.085 127.126 153.998C127.247 153.91 127.308 153.804 127.308 153.682C127.308 153.582 127.273 153.499 127.204 153.432C127.135 153.364 127.028 153.313 126.884 153.28L126.408 153.168C126.146 153.106 125.954 153.01 125.831 152.88C125.71 152.749 125.649 152.584 125.649 152.387C125.649 152.226 125.694 152.083 125.785 151.959C125.877 151.836 126.001 151.738 126.159 151.668C126.318 151.597 126.497 151.561 126.698 151.561C126.981 151.561 127.203 151.623 127.364 151.747C127.526 151.871 127.642 152.035 127.71 152.238Z" fill="black" fill-opacity="0.7"/>
<path d="M113.983 169.033C113.288 169.03 112.695 168.847 112.202 168.484C111.71 168.12 111.333 167.591 111.073 166.897C110.812 166.202 110.681 165.365 110.681 164.387C110.681 163.411 110.812 162.577 111.073 161.885C111.336 161.194 111.714 160.666 112.207 160.303C112.702 159.94 113.294 159.758 113.983 159.758C114.671 159.758 115.262 159.941 115.754 160.307C116.247 160.671 116.623 161.198 116.884 161.89C117.148 162.579 117.28 163.411 117.28 164.387C117.28 165.368 117.149 166.207 116.888 166.901C116.628 167.593 116.251 168.122 115.759 168.488C115.266 168.851 114.674 169.033 113.983 169.033ZM113.983 167.859C114.592 167.859 115.068 167.562 115.411 166.967C115.757 166.372 115.93 165.512 115.93 164.387C115.93 163.639 115.851 163.008 115.693 162.492C115.537 161.973 115.313 161.581 115.02 161.314C114.73 161.044 114.384 160.91 113.983 160.91C113.376 160.91 112.9 161.208 112.554 161.806C112.208 162.404 112.034 163.264 112.031 164.387C112.031 165.137 112.109 165.771 112.264 166.29C112.422 166.806 112.646 167.197 112.936 167.464C113.227 167.728 113.575 167.859 113.983 167.859ZM118.901 168.884L122.83 161.112V161.046H118.285V159.881H124.237V161.085L120.32 168.884H118.901ZM129.212 159.459L126.311 170.238H125.137L128.038 159.459H129.212ZM130.311 168.884V167.899L133.357 164.743C133.683 164.4 133.951 164.099 134.162 163.842C134.376 163.581 134.535 163.333 134.641 163.099C134.746 162.864 134.799 162.615 134.799 162.351C134.799 162.052 134.729 161.795 134.588 161.578C134.447 161.358 134.256 161.189 134.012 161.072C133.769 160.952 133.495 160.892 133.19 160.892C132.868 160.892 132.587 160.958 132.346 161.09C132.106 161.222 131.921 161.408 131.792 161.648C131.663 161.888 131.599 162.17 131.599 162.492H130.302C130.302 161.944 130.428 161.465 130.68 161.055C130.932 160.644 131.278 160.326 131.718 160.101C132.157 159.872 132.657 159.758 133.217 159.758C133.782 159.758 134.28 159.871 134.711 160.096C135.145 160.319 135.483 160.624 135.727 161.011C135.97 161.395 136.092 161.828 136.092 162.312C136.092 162.646 136.029 162.973 135.903 163.292C135.779 163.612 135.564 163.968 135.256 164.36C134.949 164.75 134.521 165.223 133.973 165.78L132.184 167.653V167.719H136.237V168.884H130.311ZM140.896 159.758C141.298 159.761 141.693 159.834 142.083 159.978C142.473 160.121 142.824 160.356 143.138 160.681C143.455 161.006 143.707 161.446 143.894 162C144.085 162.551 144.181 163.236 144.184 164.057C144.184 164.845 144.105 165.547 143.947 166.163C143.789 166.775 143.562 167.292 143.266 167.714C142.972 168.136 142.616 168.457 142.197 168.677C141.778 168.897 141.306 169.007 140.782 169.007C140.246 169.007 139.769 168.901 139.353 168.69C138.937 168.479 138.599 168.188 138.338 167.815C138.077 167.44 137.914 167.01 137.85 166.523H139.191C139.279 166.91 139.457 167.223 139.727 167.464C139.999 167.701 140.351 167.82 140.782 167.82C141.441 167.82 141.956 167.533 142.325 166.958C142.694 166.381 142.88 165.575 142.883 164.541H142.813C142.66 164.793 142.47 165.009 142.241 165.191C142.016 165.373 141.762 165.513 141.481 165.613C141.199 165.713 140.899 165.763 140.58 165.763C140.061 165.763 139.589 165.635 139.164 165.38C138.739 165.125 138.401 164.775 138.149 164.33C137.897 163.884 137.771 163.376 137.771 162.804C137.771 162.236 137.9 161.72 138.158 161.257C138.418 160.794 138.782 160.428 139.248 160.158C139.717 159.885 140.266 159.752 140.896 159.758ZM140.901 160.901C140.558 160.901 140.249 160.986 139.973 161.156C139.701 161.323 139.485 161.55 139.327 161.837C139.169 162.121 139.089 162.438 139.089 162.787C139.089 163.135 139.166 163.452 139.318 163.736C139.473 164.017 139.684 164.242 139.951 164.409C140.221 164.573 140.528 164.655 140.874 164.655C141.132 164.655 141.372 164.605 141.595 164.505C141.818 164.406 142.013 164.268 142.18 164.092C142.347 163.913 142.477 163.711 142.571 163.486C142.665 163.26 142.712 163.023 142.712 162.773C142.712 162.442 142.633 162.135 142.474 161.85C142.319 161.566 142.105 161.337 141.832 161.165C141.56 160.989 141.249 160.901 140.901 160.901Z" fill="black"/>
<path d="M184.216 151.837H183.755C183.728 151.704 183.68 151.588 183.612 151.487C183.545 151.387 183.463 151.302 183.366 151.234C183.271 151.165 183.165 151.113 183.048 151.078C182.932 151.043 182.81 151.026 182.684 151.026C182.453 151.026 182.244 151.084 182.057 151.201C181.871 151.317 181.723 151.489 181.613 151.716C181.504 151.943 181.449 152.221 181.449 152.551C181.449 152.881 181.504 153.159 181.613 153.386C181.723 153.613 181.871 153.785 182.057 153.901C182.244 154.018 182.453 154.076 182.684 154.076C182.81 154.076 182.932 154.059 183.048 154.024C183.165 153.989 183.271 153.938 183.366 153.869C183.463 153.8 183.545 153.715 183.612 153.615C183.68 153.513 183.728 153.396 183.755 153.265H184.216C184.182 153.46 184.118 153.634 184.027 153.788C183.935 153.941 183.821 154.072 183.684 154.18C183.548 154.287 183.395 154.368 183.225 154.424C183.056 154.479 182.876 154.507 182.684 154.507C182.359 154.507 182.07 154.428 181.817 154.269C181.564 154.111 181.365 153.885 181.22 153.592C181.075 153.3 181.003 152.953 181.003 152.551C181.003 152.149 181.075 151.802 181.22 151.509C181.365 151.217 181.564 150.991 181.817 150.832C182.07 150.674 182.359 150.594 182.684 150.594C182.876 150.594 183.056 150.622 183.225 150.678C183.395 150.734 183.548 150.816 183.684 150.924C183.821 151.03 183.935 151.16 184.027 151.314C184.118 151.467 184.182 151.641 184.216 151.837ZM185.118 150.646L186.249 153.853H186.293L187.424 150.646H187.908L186.509 154.455H186.033L184.634 150.646H185.118ZM188.657 150.646L189.788 153.853H189.832L190.963 150.646H191.447L190.048 154.455H189.572L188.173 150.646H188.657Z" fill="black" fill-opacity="0.7"/>
<path d="M181.556 168.884V167.899L184.602 164.743C184.928 164.4 185.196 164.099 185.407 163.842C185.621 163.581 185.781 163.333 185.886 163.099C185.992 162.864 186.044 162.615 186.044 162.351C186.044 162.052 185.974 161.795 185.833 161.578C185.693 161.358 185.501 161.189 185.257 161.072C185.014 160.952 184.74 160.892 184.435 160.892C184.113 160.892 183.832 160.958 183.591 161.09C183.351 161.222 183.167 161.408 183.038 161.648C182.909 161.888 182.844 162.17 182.844 162.492H181.547C181.547 161.944 181.673 161.465 181.925 161.055C182.177 160.644 182.523 160.326 182.963 160.101C183.402 159.872 183.902 159.758 184.462 159.758C185.027 159.758 185.526 159.871 185.956 160.096C186.39 160.319 186.729 160.624 186.972 161.011C187.215 161.395 187.337 161.828 187.337 162.312C187.337 162.646 187.274 162.973 187.148 163.292C187.025 163.612 186.809 163.968 186.501 164.36C186.194 164.75 185.766 165.223 185.218 165.78L183.429 167.653V167.719H187.482V168.884H181.556ZM192.563 159.881V168.884H191.201V161.244H191.148L188.994 162.65V161.349L191.24 159.881H192.563ZM197.97 169.007C197.419 169.007 196.924 168.901 196.484 168.69C196.048 168.476 195.699 168.183 195.438 167.811C195.177 167.439 195.038 167.014 195.021 166.536H196.339C196.372 166.923 196.543 167.241 196.854 167.49C197.164 167.739 197.536 167.864 197.97 167.864C198.316 167.864 198.622 167.785 198.889 167.626C199.159 167.465 199.37 167.244 199.522 166.963C199.677 166.681 199.755 166.36 199.755 166C199.755 165.634 199.676 165.307 199.518 165.02C199.359 164.732 199.141 164.507 198.863 164.343C198.587 164.179 198.271 164.095 197.913 164.092C197.641 164.092 197.367 164.139 197.091 164.233C196.816 164.327 196.593 164.45 196.423 164.602L195.179 164.417L195.684 159.881H200.634V161.046H196.814L196.528 163.565H196.581C196.757 163.395 196.99 163.253 197.28 163.138C197.573 163.024 197.887 162.967 198.221 162.967C198.769 162.967 199.257 163.097 199.685 163.358C200.115 163.619 200.454 163.975 200.7 164.426C200.949 164.875 201.072 165.39 201.069 165.974C201.072 166.557 200.94 167.077 200.674 167.534C200.41 167.991 200.044 168.352 199.575 168.615C199.109 168.876 198.574 169.007 197.97 169.007Z" fill="black"/>
<path d="M21.4618 88.5602V97.5629H19.8309V90.1471H19.7782L17.6726 91.4922V89.9977L19.91 88.5602H21.4618ZM23.7476 97.5629V96.3848L26.873 93.3209C27.172 93.0191 27.4211 92.7509 27.6203 92.5165C27.8196 92.282 27.9691 92.0549 28.0687 91.8351C28.1683 91.6153 28.2182 91.3809 28.2182 91.1318C28.2182 90.8475 28.1537 90.6043 28.0248 90.4021C27.8958 90.1969 27.7185 90.0387 27.4929 89.9273C27.2672 89.816 27.0108 89.7603 26.7236 89.7603C26.4276 89.7603 26.1682 89.8218 25.9455 89.9449C25.7228 90.0651 25.5499 90.2365 25.4268 90.4592C25.3067 90.6819 25.2466 90.9472 25.2466 91.2549H23.6949C23.6949 90.6834 23.8253 90.1867 24.0861 89.7647C24.3469 89.3427 24.7059 89.0159 25.1631 88.7844C25.6232 88.5529 26.1507 88.4371 26.7456 88.4371C27.3493 88.4371 27.8797 88.55 28.3369 88.7756C28.794 89.0013 29.1486 89.3104 29.4006 89.7031C29.6556 90.0958 29.7831 90.5442 29.7831 91.0483C29.7831 91.3853 29.7186 91.7164 29.5897 92.0417C29.4607 92.367 29.2336 92.7275 28.9083 93.1231C28.586 93.5187 28.1332 93.9979 27.55 94.5605L25.9983 96.1386V96.2002H29.9194V97.5629H23.7476ZM34.6669 97.686C34.0339 97.686 33.4712 97.5775 32.9789 97.3607C32.4895 97.1438 32.1026 96.842 31.8184 96.4551C31.5341 96.0683 31.3832 95.6214 31.3656 95.1144H33.0184C33.0331 95.3576 33.1137 95.5701 33.2602 95.7518C33.4067 95.9306 33.6016 96.0698 33.8448 96.1694C34.0881 96.269 34.3606 96.3189 34.6625 96.3189C34.9848 96.3189 35.2706 96.2632 35.5196 96.1518C35.7687 96.0375 35.9636 95.8793 36.1043 95.6771C36.245 95.4749 36.3138 95.2419 36.3109 94.9781C36.3138 94.7056 36.2435 94.4653 36.0999 94.2572C35.9563 94.0492 35.7482 93.8865 35.4757 93.7693C35.2061 93.6521 34.8808 93.5935 34.4998 93.5935H33.7042V92.3362H34.4998C34.8134 92.3362 35.0874 92.282 35.3218 92.1736C35.5592 92.0652 35.7453 91.9128 35.8801 91.7164C36.0149 91.5172 36.0809 91.2871 36.0779 91.0263C36.0809 90.7713 36.0237 90.5501 35.9065 90.3625C35.7922 90.172 35.6295 90.024 35.4185 89.9185C35.2105 89.813 34.9658 89.7603 34.6844 89.7603C34.409 89.7603 34.154 89.8101 33.9196 89.9097C33.6851 90.0094 33.4961 90.1515 33.3525 90.3361C33.2089 90.5178 33.1327 90.7347 33.1239 90.9867H31.5546C31.5663 90.4827 31.7114 90.0402 31.9898 89.6592C32.2711 89.2753 32.6462 88.9764 33.1151 88.7624C33.584 88.5456 34.1101 88.4371 34.6932 88.4371C35.294 88.4371 35.8156 88.55 36.2581 88.7756C36.7036 88.9983 37.0479 89.2987 37.2912 89.6768C37.5344 90.0548 37.656 90.4724 37.656 90.9296C37.659 91.4366 37.5095 91.8615 37.2076 92.2044C36.9087 92.5472 36.516 92.7714 36.0296 92.8769V92.9473C36.6626 93.0352 37.1476 93.2696 37.4846 93.6506C37.8245 94.0286 37.993 94.499 37.9901 95.0617C37.9901 95.5657 37.8465 96.017 37.5593 96.4156C37.2751 96.8112 36.8824 97.1218 36.3812 97.3475C35.883 97.5731 35.3116 97.686 34.6669 97.686ZM39.3363 95.8925V94.5957L43.1563 88.5602H44.2377V90.4065H43.5783L41.0067 94.4814V94.5517H46.3389V95.8925H39.3363ZM43.6311 97.5629V95.4968L43.6486 94.9166V88.5602H45.1872V97.5629H43.6311Z" fill="black"/>
<path d="M59.4605 97.686C58.8744 97.686 58.3498 97.5761 57.8868 97.3563C57.4237 97.1336 57.056 96.8288 56.7834 96.442C56.5138 96.0551 56.3702 95.6126 56.3526 95.1144H57.9351C57.9644 95.4837 58.1242 95.7855 58.4143 96.02C58.7044 96.2515 59.0531 96.3672 59.4605 96.3672C59.7799 96.3672 60.0642 96.294 60.3133 96.1474C60.5624 96.0009 60.7587 95.7972 60.9023 95.5364C61.0459 95.2756 61.1162 94.9781 61.1133 94.6441C61.1162 94.3041 61.0445 94.0023 60.8979 93.7385C60.7514 93.4748 60.5507 93.2682 60.2957 93.1187C60.0407 92.9663 59.7477 92.8901 59.4165 92.8901C59.1469 92.8872 58.8817 92.937 58.6209 93.0396C58.3601 93.1421 58.1535 93.277 58.0011 93.444L56.5285 93.2022L56.9988 88.5602H62.2211V89.9229H58.3483L58.089 92.3099H58.1417C58.3088 92.1135 58.5447 91.9509 58.8495 91.8219C59.1542 91.6901 59.4883 91.6241 59.8517 91.6241C60.3968 91.6241 60.8833 91.7531 61.3111 92.011C61.739 92.2659 62.076 92.6176 62.3222 93.066C62.5683 93.5143 62.6914 94.0272 62.6914 94.6045C62.6914 95.1994 62.5537 95.7298 62.2782 96.1958C62.0057 96.6588 61.6262 97.0237 61.1397 97.2903C60.6562 97.5541 60.0964 97.686 59.4605 97.686ZM67.4609 97.686C67.0301 97.683 66.6096 97.6083 66.1993 97.4618C65.789 97.3123 65.4198 97.0706 65.0915 96.7365C64.7633 96.3995 64.5025 95.9525 64.3091 95.3957C64.1157 94.836 64.0204 94.1429 64.0234 93.3165C64.0234 92.5458 64.1054 91.8586 64.2695 91.2549C64.4336 90.6512 64.6695 90.1413 64.9773 89.7251C65.285 89.306 65.6557 88.9866 66.0894 88.7668C66.5261 88.547 67.014 88.4371 67.5532 88.4371C68.1188 88.4371 68.6199 88.5485 69.0566 88.7712C69.4962 88.9939 69.8508 89.2987 70.1204 89.6856C70.39 90.0695 70.557 90.5032 70.6215 90.9867H69.017C68.935 90.6409 68.7665 90.3654 68.5115 90.1603C68.2595 89.9522 67.94 89.8482 67.5532 89.8482C66.929 89.8482 66.4484 90.1193 66.1114 90.6614C65.7773 91.2036 65.6088 91.9479 65.6059 92.8945H65.6674C65.811 92.6366 65.9971 92.4154 66.2257 92.2307C66.4543 92.0461 66.7121 91.904 66.9993 91.8043C67.2895 91.7018 67.5957 91.6505 67.9181 91.6505C68.4456 91.6505 68.9189 91.7765 69.3379 92.0285C69.7599 92.2806 70.094 92.6278 70.3402 93.0703C70.5863 93.5099 70.708 94.014 70.705 94.5825C70.708 95.1745 70.5732 95.7064 70.3006 96.1782C70.0281 96.6471 69.6486 97.0163 69.1621 97.286C68.6756 97.5556 68.1086 97.6889 67.4609 97.686ZM67.4521 96.3672C67.7715 96.3672 68.0573 96.2896 68.3093 96.1342C68.5613 95.9789 68.7606 95.7694 68.9071 95.5056C69.0537 95.2419 69.1255 94.9459 69.1225 94.6177C69.1255 94.2953 69.0551 94.0037 68.9115 93.7429C68.7709 93.4821 68.576 93.2755 68.3269 93.1231C68.0778 92.9707 67.7935 92.8945 67.4741 92.8945C67.2367 92.8945 67.0155 92.9399 66.8103 93.0308C66.6052 93.1216 66.4264 93.2476 66.274 93.4088C66.1216 93.5671 66.0015 93.7517 65.9136 93.9627C65.8286 94.1708 65.7846 94.3935 65.7817 94.6309C65.7846 94.9444 65.8579 95.2331 66.0015 95.4968C66.1451 95.7606 66.3429 95.9716 66.5949 96.1298C66.847 96.2881 67.1327 96.3672 67.4521 96.3672ZM72.5205 97.5629L76.3493 89.9845V89.9229H71.9051V88.5602H78.0373V89.9537L74.2129 97.5629H72.5205ZM82.4749 97.686C81.8214 97.686 81.2411 97.5761 80.7341 97.3563C80.2301 97.1365 79.8344 96.8361 79.5473 96.4551C79.263 96.0712 79.1223 95.636 79.1253 95.1496C79.1223 94.7715 79.2044 94.4243 79.3714 94.1078C79.5385 93.7913 79.7641 93.5275 80.0484 93.3165C80.3356 93.1026 80.655 92.9663 81.0067 92.9077V92.8462C80.5436 92.7436 80.1685 92.5077 79.8813 92.1384C79.5971 91.7662 79.4564 91.3369 79.4593 90.8504C79.4564 90.3874 79.5853 89.9742 79.8462 89.6108C80.107 89.2474 80.4645 88.9617 80.9188 88.7536C81.373 88.5426 81.8917 88.4371 82.4749 88.4371C83.0522 88.4371 83.5665 88.5426 84.0178 88.7536C84.472 88.9617 84.8296 89.2474 85.0904 89.6108C85.3541 89.9742 85.486 90.3874 85.486 90.8504C85.486 91.3369 85.341 91.7662 85.0508 92.1384C84.7636 92.5077 84.3929 92.7436 83.9387 92.8462V92.9077C84.2904 92.9663 84.6069 93.1026 84.8882 93.3165C85.1725 93.5275 85.3981 93.7913 85.5651 94.1078C85.7351 94.4243 85.8201 94.7715 85.8201 95.1496C85.8201 95.636 85.6765 96.0712 85.3893 96.4551C85.1021 96.8361 84.7065 97.1365 84.2024 97.3563C83.7013 97.5761 83.1255 97.686 82.4749 97.686ZM82.4749 96.4288C82.8119 96.4288 83.1049 96.3716 83.354 96.2573C83.6031 96.1401 83.7966 95.976 83.9343 95.765C84.072 95.554 84.1424 95.3108 84.1453 95.0353C84.1424 94.7481 84.0676 94.4946 83.9211 94.2748C83.7775 94.0521 83.5797 93.8777 83.3277 93.7517C83.0786 93.6257 82.7943 93.5627 82.4749 93.5627C82.1525 93.5627 81.8653 93.6257 81.6133 93.7517C81.3613 93.8777 81.162 94.0521 81.0155 94.2748C80.8719 94.4946 80.8015 94.7481 80.8045 95.0353C80.8015 95.3108 80.8689 95.554 81.0067 95.765C81.1444 95.9731 81.3378 96.1357 81.5869 96.2529C81.8389 96.3702 82.1349 96.4288 82.4749 96.4288ZM82.4749 92.3275C82.7503 92.3275 82.9936 92.2718 83.2046 92.1604C83.4185 92.049 83.587 91.8937 83.7101 91.6945C83.8332 91.4952 83.8962 91.2651 83.8991 91.0043C83.8962 90.7464 83.8347 90.5208 83.7145 90.3273C83.5943 90.131 83.4273 89.9801 83.2134 89.8746C82.9994 89.7661 82.7533 89.7119 82.4749 89.7119C82.1906 89.7119 81.94 89.7661 81.7232 89.8746C81.5093 89.9801 81.3422 90.131 81.2221 90.3273C81.1048 90.5208 81.0477 90.7464 81.0506 91.0043C81.0477 91.2651 81.1063 91.4952 81.2265 91.6945C81.3495 91.8908 81.518 92.0461 81.732 92.1604C81.9488 92.2718 82.1965 92.3275 82.4749 92.3275Z" fill="black"/>
<path d="M99.523 88.5602V97.5629H97.8921V90.1471H97.8394L95.7338 91.4922V89.9977L97.9713 88.5602H99.523ZM101.809 97.5629V96.3848L104.934 93.3209C105.233 93.0191 105.482 92.7509 105.682 92.5165C105.881 92.282 106.03 92.0549 106.13 91.8351C106.23 91.6153 106.279 91.3809 106.279 91.1318C106.279 90.8475 106.215 90.6043 106.086 90.4021C105.957 90.1969 105.78 90.0387 105.554 89.9273C105.328 89.816 105.072 89.7603 104.785 89.7603C104.489 89.7603 104.229 89.8218 104.007 89.9449C103.784 90.0651 103.611 90.2365 103.488 90.4592C103.368 90.6819 103.308 90.9472 103.308 91.2549H101.756C101.756 90.6834 101.886 90.1867 102.147 89.7647C102.408 89.3427 102.767 89.0159 103.224 88.7844C103.684 88.5529 104.212 88.4371 104.807 88.4371C105.41 88.4371 105.941 88.55 106.398 88.7756C106.855 89.0013 107.21 89.3104 107.462 89.7031C107.717 90.0958 107.844 90.5442 107.844 91.0483C107.844 91.3853 107.78 91.7164 107.651 92.0417C107.522 92.367 107.295 92.7275 106.97 93.1231C106.647 93.5187 106.194 93.9979 105.611 94.5605L104.059 96.1386V96.2002H107.981V97.5629H101.809ZM112.728 97.686C112.095 97.686 111.532 97.5775 111.04 97.3607C110.551 97.1438 110.164 96.842 109.88 96.4551C109.595 96.0683 109.444 95.6214 109.427 95.1144H111.08C111.094 95.3576 111.175 95.5701 111.321 95.7518C111.468 95.9306 111.663 96.0698 111.906 96.1694C112.149 96.269 112.422 96.3189 112.724 96.3189C113.046 96.3189 113.332 96.2632 113.581 96.1518C113.83 96.0375 114.025 95.8793 114.166 95.6771C114.306 95.4749 114.375 95.2419 114.372 94.9781C114.375 94.7056 114.305 94.4653 114.161 94.2572C114.018 94.0492 113.809 93.8865 113.537 93.7693C113.267 93.6521 112.942 93.5935 112.561 93.5935H111.765V92.3362H112.561C112.875 92.3362 113.149 92.282 113.383 92.1736C113.62 92.0652 113.807 91.9128 113.941 91.7164C114.076 91.5172 114.142 91.2871 114.139 91.0263C114.142 90.7713 114.085 90.5501 113.968 90.3625C113.853 90.172 113.691 90.024 113.48 89.9185C113.272 89.813 113.027 89.7603 112.746 89.7603C112.47 89.7603 112.215 89.8101 111.981 89.9097C111.746 90.0094 111.557 90.1515 111.414 90.3361C111.27 90.5178 111.194 90.7347 111.185 90.9867H109.616C109.628 90.4827 109.773 90.0402 110.051 89.6592C110.332 89.2753 110.707 88.9764 111.176 88.7624C111.645 88.5456 112.171 88.4371 112.754 88.4371C113.355 88.4371 113.877 88.55 114.319 88.7756C114.765 88.9983 115.109 89.2987 115.352 89.6768C115.596 90.0548 115.717 90.4724 115.717 90.9296C115.72 91.4366 115.571 91.8615 115.269 92.2044C114.97 92.5472 114.577 92.7714 114.091 92.8769V92.9473C114.724 93.0352 115.209 93.2696 115.546 93.6506C115.886 94.0286 116.054 94.499 116.051 95.0617C116.051 95.5657 115.908 96.017 115.621 96.4156C115.336 96.8112 114.944 97.1218 114.442 97.3475C113.944 97.5731 113.373 97.686 112.728 97.686ZM117.398 95.8925V94.5957L121.218 88.5602H122.299V90.4065H121.64L119.068 94.4814V94.5517H124.4V95.8925H117.398ZM121.692 97.5629V95.4968L121.71 94.9166V88.5602H123.248V97.5629H121.692Z" fill="black"/>
<path d="M137.522 97.686C136.936 97.686 136.411 97.5761 135.948 97.3563C135.485 97.1336 135.117 96.8288 134.845 96.442C134.575 96.0551 134.431 95.6126 134.414 95.1144H135.996C136.026 95.4837 136.185 95.7855 136.475 96.02C136.766 96.2515 137.114 96.3672 137.522 96.3672C137.841 96.3672 138.125 96.294 138.374 96.1474C138.624 96.0009 138.82 95.7972 138.964 95.5364C139.107 95.2756 139.177 94.9781 139.175 94.6441C139.177 94.3041 139.106 94.0023 138.959 93.7385C138.813 93.4748 138.612 93.2682 138.357 93.1187C138.102 92.9663 137.809 92.8901 137.478 92.8901C137.208 92.8872 136.943 92.937 136.682 93.0396C136.421 93.1421 136.215 93.277 136.062 93.444L134.59 93.2022L135.06 88.5602H140.282V89.9229H136.41L136.15 92.3099H136.203C136.37 92.1135 136.606 91.9509 136.911 91.8219C137.215 91.6901 137.55 91.6241 137.913 91.6241C138.458 91.6241 138.944 91.7531 139.372 92.011C139.8 92.2659 140.137 92.6176 140.383 93.066C140.63 93.5143 140.753 94.0272 140.753 94.6045C140.753 95.1994 140.615 95.7298 140.339 96.1958C140.067 96.6588 139.687 97.0237 139.201 97.2903C138.717 97.5541 138.158 97.686 137.522 97.686ZM145.522 97.686C145.091 97.683 144.671 97.6083 144.261 97.4618C143.85 97.3123 143.481 97.0706 143.153 96.7365C142.825 96.3995 142.564 95.9525 142.37 95.3957C142.177 94.836 142.082 94.1429 142.085 93.3165C142.085 92.5458 142.167 91.8586 142.331 91.2549C142.495 90.6512 142.731 90.1413 143.038 89.7251C143.346 89.306 143.717 88.9866 144.151 88.7668C144.587 88.547 145.075 88.4371 145.614 88.4371C146.18 88.4371 146.681 88.5485 147.118 88.7712C147.557 88.9939 147.912 89.2987 148.182 89.6856C148.451 90.0695 148.618 90.5032 148.683 90.9867H147.078C146.996 90.6409 146.828 90.3654 146.573 90.1603C146.321 89.9522 146.001 89.8482 145.614 89.8482C144.99 89.8482 144.51 90.1193 144.173 90.6614C143.839 91.2036 143.67 91.9479 143.667 92.8945H143.729C143.872 92.6366 144.058 92.4154 144.287 92.2307C144.515 92.0461 144.773 91.904 145.061 91.8043C145.351 91.7018 145.657 91.6505 145.979 91.6505C146.507 91.6505 146.98 91.7765 147.399 92.0285C147.821 92.2806 148.155 92.6278 148.401 93.0703C148.648 93.5099 148.769 94.014 148.766 94.5825C148.769 95.1745 148.634 95.7064 148.362 96.1782C148.089 96.6471 147.71 97.0163 147.223 97.286C146.737 97.5556 146.17 97.6889 145.522 97.686ZM145.513 96.3672C145.833 96.3672 146.118 96.2896 146.371 96.1342C146.623 95.9789 146.822 95.7694 146.968 95.5056C147.115 95.2419 147.187 94.9459 147.184 94.6177C147.187 94.2953 147.116 94.0037 146.973 93.7429C146.832 93.4821 146.637 93.2755 146.388 93.1231C146.139 92.9707 145.855 92.8945 145.535 92.8945C145.298 92.8945 145.077 92.9399 144.872 93.0308C144.666 93.1216 144.488 93.2476 144.335 93.4088C144.183 93.5671 144.063 93.7517 143.975 93.9627C143.89 94.1708 143.846 94.3935 143.843 94.6309C143.846 94.9444 143.919 95.2331 144.063 95.4968C144.206 95.7606 144.404 95.9716 144.656 96.1298C144.908 96.2881 145.194 96.3672 145.513 96.3672ZM150.582 97.5629L154.41 89.9845V89.9229H149.966V88.5602H156.098V89.9537L152.274 97.5629H150.582ZM160.536 97.686C159.883 97.686 159.302 97.5761 158.795 97.3563C158.291 97.1365 157.896 96.8361 157.608 96.4551C157.324 96.0712 157.184 95.636 157.186 95.1496C157.184 94.7715 157.266 94.4243 157.433 94.1078C157.6 93.7913 157.825 93.5275 158.11 93.3165C158.397 93.1026 158.716 92.9663 159.068 92.9077V92.8462C158.605 92.7436 158.23 92.5077 157.943 92.1384C157.658 91.7662 157.518 91.3369 157.521 90.8504C157.518 90.3874 157.647 89.9742 157.907 89.6108C158.168 89.2474 158.526 88.9617 158.98 88.7536C159.434 88.5426 159.953 88.4371 160.536 88.4371C161.113 88.4371 161.628 88.5426 162.079 88.7536C162.533 88.9617 162.891 89.2474 163.152 89.6108C163.415 89.9742 163.547 90.3874 163.547 90.8504C163.547 91.3369 163.402 91.7662 163.112 92.1384C162.825 92.5077 162.454 92.7436 162 92.8462V92.9077C162.352 92.9663 162.668 93.1026 162.949 93.3165C163.234 93.5275 163.459 93.7913 163.626 94.1078C163.796 94.4243 163.881 94.7715 163.881 95.1496C163.881 95.636 163.738 96.0712 163.451 96.4551C163.163 96.8361 162.768 97.1365 162.264 97.3563C161.763 97.5761 161.187 97.686 160.536 97.686ZM160.536 96.4288C160.873 96.4288 161.166 96.3716 161.415 96.2573C161.664 96.1401 161.858 95.976 161.996 95.765C162.133 95.554 162.204 95.3108 162.207 95.0353C162.204 94.7481 162.129 94.4946 161.982 94.2748C161.839 94.0521 161.641 93.8777 161.389 93.7517C161.14 93.6257 160.856 93.5627 160.536 93.5627C160.214 93.5627 159.927 93.6257 159.675 93.7517C159.422 93.8777 159.223 94.0521 159.077 94.2748C158.933 94.4946 158.863 94.7481 158.866 95.0353C158.863 95.3108 158.93 95.554 159.068 95.765C159.206 95.9731 159.399 96.1357 159.648 96.2529C159.9 96.3702 160.196 96.4288 160.536 96.4288ZM160.536 92.3275C160.812 92.3275 161.055 92.2718 161.266 92.1604C161.48 92.049 161.648 91.8937 161.771 91.6945C161.894 91.4952 161.957 91.2651 161.96 91.0043C161.957 90.7464 161.896 90.5208 161.776 90.3273C161.656 90.131 161.489 89.9801 161.275 89.8746C161.061 89.7661 160.814 89.7119 160.536 89.7119C160.252 89.7119 160.001 89.7661 159.784 89.8746C159.57 89.9801 159.403 90.131 159.283 90.3273C159.166 90.5208 159.109 90.7464 159.112 91.0043C159.109 91.2651 159.168 91.4952 159.288 91.6945C159.411 91.8908 159.579 92.0461 159.793 92.1604C160.01 92.2718 160.258 92.3275 160.536 92.3275Z" fill="black"/>
<path d="M25.2963 26.925H23.9248C23.8721 26.6319 23.7739 26.374 23.6303 26.1513C23.4867 25.9286 23.3109 25.7395 23.1028 25.5842C22.8947 25.4289 22.6618 25.3117 22.4039 25.2326C22.1489 25.1534 21.8778 25.1139 21.5906 25.1139C21.0719 25.1139 20.6074 25.2443 20.1972 25.5051C19.7898 25.7659 19.4675 26.1484 19.2301 26.6524C18.9956 27.1565 18.8784 27.7719 18.8784 28.4987C18.8784 29.2313 18.9956 29.8497 19.2301 30.3537C19.4675 30.8578 19.7913 31.2387 20.2016 31.4966C20.6118 31.7545 21.0734 31.8835 21.5862 31.8835C21.8705 31.8835 22.1401 31.8454 22.3951 31.7692C22.653 31.69 22.886 31.5743 23.094 31.4219C23.3021 31.2695 23.4779 31.0834 23.6215 30.8636C23.768 30.6409 23.8692 30.3859 23.9248 30.0987L25.2963 30.1031C25.2231 30.5457 25.0809 30.953 24.8699 31.3252C24.6619 31.6944 24.3937 32.0139 24.0655 32.2835C23.7402 32.5502 23.368 32.7568 22.949 32.9033C22.5299 33.0498 22.0727 33.1231 21.5775 33.1231C20.7979 33.1231 20.1034 32.9385 19.4938 32.5692C18.8843 32.197 18.4037 31.6651 18.052 30.9735C17.7033 30.2819 17.5289 29.457 17.5289 28.4987C17.5289 27.5374 17.7047 26.7125 18.0564 26.0238C18.4081 25.3322 18.8887 24.8018 19.4982 24.4325C20.1078 24.0603 20.8009 23.8742 21.5775 23.8742C22.0551 23.8742 22.5006 23.9431 22.9138 24.0809C23.3299 24.2157 23.7036 24.4149 24.0347 24.6787C24.3659 24.9395 24.6399 25.2589 24.8567 25.637C25.0736 26.0121 25.2201 26.4414 25.2963 26.925ZM26.8162 33V26.248H28.0866V27.3206H28.1569C28.28 26.9572 28.4969 26.6715 28.8075 26.4634C29.1211 26.2524 29.4757 26.1469 29.8713 26.1469C29.9534 26.1469 30.0501 26.1498 30.1614 26.1557C30.2757 26.1615 30.3651 26.1689 30.4296 26.1777V27.4349C30.3768 27.4202 30.283 27.4041 30.1482 27.3865C30.0134 27.366 29.8786 27.3557 29.7438 27.3557C29.4332 27.3557 29.1562 27.4217 28.913 27.5536C28.6727 27.6825 28.4822 27.8627 28.3415 28.0942C28.2009 28.3228 28.1305 28.5837 28.1305 28.8767V33H26.8162ZM34.2353 33.1363C33.57 33.1363 32.9971 32.9941 32.5165 32.7099C32.0388 32.4227 31.6696 32.0197 31.4087 31.501C31.1509 30.9794 31.0219 30.3684 31.0219 29.668C31.0219 28.9763 31.1509 28.3668 31.4087 27.8393C31.6696 27.3118 32.0329 26.9 32.4989 26.6041C32.9678 26.3081 33.5158 26.1601 34.1429 26.1601C34.5239 26.1601 34.8932 26.2231 35.2507 26.3491C35.6082 26.4751 35.9291 26.6729 36.2134 26.9425C36.4977 27.2122 36.7218 27.5624 36.8859 27.9931C37.0501 28.421 37.1321 28.9412 37.1321 29.5537V30.0196H31.7648V29.035H35.8441C35.8441 28.6892 35.7738 28.3829 35.6331 28.1162C35.4925 27.8466 35.2947 27.6342 35.0397 27.4788C34.7877 27.3235 34.4917 27.2459 34.1517 27.2459C33.7825 27.2459 33.4601 27.3367 33.1847 27.5184C32.9121 27.6972 32.7011 27.9316 32.5517 28.2217C32.4051 28.5089 32.3319 28.821 32.3319 29.158V29.9273C32.3319 30.3786 32.411 30.7625 32.5692 31.079C32.7304 31.3955 32.9546 31.6373 33.2418 31.8043C33.529 31.9684 33.8645 32.0505 34.2484 32.0505C34.4975 32.0505 34.7247 32.0153 34.9298 31.945C35.1349 31.8717 35.3122 31.7633 35.4617 31.6197C35.6112 31.4761 35.7254 31.2988 35.8046 31.0878L37.0486 31.312C36.949 31.6783 36.7702 31.9992 36.5123 32.2747C36.2573 32.5472 35.9364 32.7597 35.5496 32.9121C35.1657 33.0615 34.7276 33.1363 34.2353 33.1363ZM41.118 33.1319C40.573 33.1319 40.0865 32.9927 39.6586 32.7143C39.2337 32.4329 38.8996 32.0329 38.6564 31.5142C38.4161 30.9926 38.2959 30.3669 38.2959 29.6372C38.2959 28.9075 38.4175 28.2833 38.6608 27.7646C38.9069 27.2459 39.2439 26.8488 39.6718 26.5733C40.0997 26.2978 40.5847 26.1601 41.1268 26.1601C41.5459 26.1601 41.8829 26.2304 42.1379 26.3711C42.3958 26.5088 42.595 26.67 42.7357 26.8546C42.8793 27.0392 42.9907 27.2019 43.0698 27.3426H43.1489V23.9973H44.4633V33H43.1797V31.9494H43.0698C42.9907 32.093 42.8764 32.2571 42.7269 32.4417C42.5804 32.6264 42.3782 32.7875 42.1203 32.9253C41.8624 33.063 41.5283 33.1319 41.118 33.1319ZM41.4082 32.0109C41.7862 32.0109 42.1056 31.9113 42.3665 31.712C42.6302 31.5098 42.8295 31.2299 42.9643 30.8724C43.102 30.5149 43.1709 30.0987 43.1709 29.624C43.1709 29.1551 43.1035 28.7448 42.9687 28.3932C42.8339 28.0415 42.6361 27.7675 42.3752 27.5711C42.1144 27.3748 41.7921 27.2766 41.4082 27.2766C41.0125 27.2766 40.6829 27.3792 40.4191 27.5843C40.1554 27.7895 39.9561 28.0693 39.8213 28.4239C39.6894 28.7785 39.6235 29.1786 39.6235 29.624C39.6235 30.0753 39.6909 30.4812 39.8257 30.8416C39.9605 31.2021 40.1597 31.4878 40.4235 31.6988C40.6902 31.9069 41.0184 32.0109 41.4082 32.0109ZM46.3392 33V26.248H47.6535V33H46.3392ZM47.003 25.2062C46.7744 25.2062 46.578 25.13 46.4139 24.9776C46.2527 24.8223 46.1721 24.6377 46.1721 24.4237C46.1721 24.2069 46.2527 24.0222 46.4139 23.8699C46.578 23.7145 46.7744 23.6369 47.003 23.6369C47.2315 23.6369 47.4264 23.7145 47.5876 23.8699C47.7517 24.0222 47.8338 24.2069 47.8338 24.4237C47.8338 24.6377 47.7517 24.8223 47.5876 24.9776C47.4264 25.13 47.2315 25.2062 47.003 25.2062ZM52.5736 26.248V27.303H48.8855V26.248H52.5736ZM49.8745 24.6303H51.1889V31.0175C51.1889 31.2724 51.227 31.4644 51.3032 31.5933C51.3794 31.7193 51.4776 31.8058 51.5977 31.8527C51.7208 31.8966 51.8541 31.9186 51.9977 31.9186C52.1032 31.9186 52.1955 31.9113 52.2747 31.8966C52.3538 31.882 52.4153 31.8703 52.4593 31.8615L52.6967 32.9472C52.6205 32.9766 52.512 33.0059 52.3714 33.0352C52.2307 33.0674 52.0549 33.085 51.8439 33.0879C51.4981 33.0938 51.1757 33.0322 50.8768 32.9033C50.5779 32.7743 50.3361 32.5751 50.1515 32.3055C49.9669 32.0358 49.8745 31.6974 49.8745 31.29V24.6303Z" fill="black"/>
<path d="M299.385 40.3474H289.907V23.3154H299.385V40.3474Z" fill="#FF5F00"/>
<path d="M290.509 31.8313C290.509 28.3762 292.127 25.2992 294.646 23.3161C292.739 21.812 290.38 20.9971 287.953 21C281.97 21 277.122 25.8498 277.122 31.8313C277.122 37.8129 281.97 42.6627 287.952 42.6627C290.38 42.6656 292.739 41.8507 294.645 40.3466C292.127 38.3634 290.509 35.2865 290.509 31.8313Z" fill="#EB001B"/>
<path d="M312.17 31.8313C312.17 37.8129 307.322 42.6627 301.34 42.6627C298.912 42.6656 296.553 41.8507 294.646 40.3466C297.165 38.3634 298.783 35.2865 298.783 31.8313C298.783 28.3762 297.165 25.2992 294.646 23.3161C296.553 21.812 298.912 20.9971 301.34 21C307.322 21 312.17 25.8498 312.17 31.8313Z" fill="#F79E1B"/>
</g>
<defs>
<linearGradient id="paint0_linear_201_1284" x1="164" y1="0" x2="164" y2="192" gradientUnits="userSpaceOnUse">
<stop stop-color="#9EC7CB"/>
<stop offset="1" stop-color="#FFC16E"/>
</linearGradient>
<linearGradient id="paint1_linear_201_1284" x1="74" y1="0" x2="34" y2="63" gradientUnits="userSpaceOnUse">
<stop stop-color="#FFC16E" stop-opacity="0.4"/>
<stop offset="1" stop-color="#9EC7CB"/>
</linearGradient>
<linearGradient id="paint2_linear_201_1284" x1="268" y1="57.3704" x2="-8.50001" y2="149" gradientUnits="userSpaceOnUse">
<stop stop-color="#9EC7CB" stop-opacity="0.7"/>
<stop offset="0.9999" stop-color="#FFC16E" stop-opacity="0.5"/>
<stop offset="1" stop-color="#F2C335" stop-opacity="0.7"/>
</linearGradient>
<clipPath id="clip0_201_1284">
<rect width="328" height="192" rx="15" fill="white"/>
</clipPath>
</defs>
</svg>
